<?xml version="1.0" encoding="UTF-8"?>
<svg width="55px" height="55px" viewBox="0 0 55 55" version="1.1" xmlns="http://www.w3.org/2000/svg" xmlns:xlink="http://www.w3.org/1999/xlink">
    <!-- Generator: Sketch 55.2 (78181) - https://sketchapp.com -->
    <title>menu-icon</title>
    <desc>Created with Sketch.</desc>
    <g id="Icons" stroke="none" stroke-width="1" fill="none" fill-rule="evenodd">
        <g id="Workspace" transform="translate(-149.000000, -56.000000)" fill="#F2F4F6" fill-rule="nonzero">
            <g id="menu-icon" transform="translate(149.000000, 56.000000)">
                <path d="M27.5,0 C12.3366964,0 0,12.3366964 0,27.5 C0,42.6633036 12.3366964,55 27.5,55 C42.6633036,55 55,42.6633036 55,27.5 C55,12.3366964 42.6633036,0 27.5,0 Z M27.7019231,51.2980769 C14.4677692,51.2980769 3.70192308,40.5313077 3.70192308,27.2980769 C3.70192308,14.0648462 14.4677692,3.29807692 27.7019231,3.29807692 C40.9360769,3.29807692 51.7019231,14.0648462 51.7019231,27.2980769 C51.7019231,40.5313077 40.9360769,51.2980769 27.7019231,51.2980769 Z" id="Shape"></path>
                <path d="M41.1944444,30 L13.8055556,30 C13.3600833,30 13,30.56 13,31.25 C13,31.94 13.3600833,32.5 13.8055556,32.5 L41.1944444,32.5 C41.6399167,32.5 42,31.94 42,31.25 C42,30.56 41.6399167,30 41.1944444,30 Z" id="Path"></path>
                <path d="M41.1944444,23 L13.8055556,23 C13.3600833,23 13,23.56 13,24.25 C13,24.94 13.3600833,25.5 13.8055556,25.5 L41.1944444,25.5 C41.6399167,25.5 42,24.94 42,24.25 C42,23.56 41.6399167,23 41.1944444,23 Z" id="Path-Copy-2"></path>
                <path d="M37.25,37 L17.75,37 C17.33525,37 17,37.56 17,38.25 C17,38.94 17.33525,39.5 17.75,39.5 L37.25,39.5 C37.66475,39.5 38,38.94 38,38.25 C38,37.56 37.66475,37 37.25,37 Z" id="Path"></path>
                <path d="M37.25,16 L17.75,16 C17.33525,16 17,16.56 17,17.25 C17,17.94 17.33525,18.5 17.75,18.5 L37.25,18.5 C37.66475,18.5 38,17.94 38,17.25 C38,16.56 37.66475,16 37.25,16 Z" id="Path-Copy"></path>
            </g>
        </g>
    </g>
</svg>