<?xml version="1.0" encoding="UTF-8"?>
<svg width="55px" height="55px" viewBox="0 0 55 55" version="1.1" xmlns="http://www.w3.org/2000/svg" xmlns:xlink="http://www.w3.org/1999/xlink">
    <!-- Generator: Sketch 55.2 (78181) - https://sketchapp.com -->
    <title>plus-button</title>
    <desc>Created with Sketch.</desc>
    <g id="Icons" stroke="none" stroke-width="1" fill="none" fill-rule="evenodd">
        <g id="Workspace" transform="translate(-254.000000, -56.000000)" fill="#F2F4F6" fill-rule="nonzero">
            <g id="plus-button" transform="translate(254.000000, 56.000000)">
                <path d="M27.4991146,55 C12.3355549,55 0,42.6626743 0,27.4991146 C0,12.3355549 12.3355549,0 27.4991146,0 C42.6626743,0 54.9982292,12.3355549 54.9982292,27.4991146 C55,42.6626743 42.6626743,55 27.4991146,55 Z M27.4991016,3.49822918 C14.2641603,3.49822918 3.49822918,14.2659052 3.49822918,27.4991016 C3.49822918,40.732298 14.2641603,51.4982292 27.4991016,51.4982292 C40.732298,51.4982292 51.4982292,40.732298 51.4982292,27.4991016 C51.4982292,14.2659052 40.732298,3.49822918 27.4991016,3.49822918 Z" id="Shape"></path>
                <path d="M38.3418655,29.0698348 L16.6563637,29.0698348 C15.7886603,29.0698348 15.0838726,28.3685888 15.0838726,27.4991146 C15.0838726,26.6314112 15.7868895,25.9266235 16.6563637,25.9266235 L38.3418655,25.9266235 C39.2095689,25.9266235 39.9125857,26.6314112 39.9125857,27.4991146 C39.9125857,28.3685888 39.2113397,29.0698348 38.3418655,29.0698348 Z" id="Path"></path>
                <path d="M27.4991146,39.9125857 C26.6314112,39.9125857 25.9266235,39.2095689 25.9266235,38.3418655 L25.9266235,16.6563637 C25.9266235,15.7886603 26.6314112,15.0838726 27.4991146,15.0838726 C28.366818,15.0838726 29.0698348,15.7886603 29.0698348,16.6563637 L29.0698348,38.3418655 C29.0698348,39.2113397 28.3685888,39.9125857 27.4991146,39.9125857 Z" id="Path"></path>
            </g>
        </g>
    </g>
</svg>